<mxfile host="app.diagrams.net" modified="2023-01-16T14:05:24.240Z" agent="5.0 (Windows NT 10.0; Win64; x64) AppleWebKit/537.36 (KHTML, like Gecko) Chrome/109.0.0.0 Safari/537.36" etag="FL3E7lps79bxXVcUf_0b" version="20.8.5" type="github">
  <diagram id="w0BGqSE6HDf3NLZn0e8R" name="Сторінка-1">
    <mxGraphModel dx="1235" dy="636" grid="1" gridSize="10" guides="1" tooltips="1" connect="1" arrows="1" fold="1" page="1" pageScale="1" pageWidth="1169" pageHeight="827" background="#ffffff" math="0" shadow="0">
      <root>
        <mxCell id="0" />
        <mxCell id="1" parent="0" />
        <mxCell id="haRoXrQ0sM1ameP-LdN--1" value="&lt;b&gt;&lt;font style=&quot;font-size: 14px;&quot;&gt;&lt;i&gt;Testing Types&lt;/i&gt;&lt;/font&gt;&lt;/b&gt;" style="rounded=1;whiteSpace=wrap;html=1;" parent="1" vertex="1">
          <mxGeometry x="670" width="120" height="60" as="geometry" />
        </mxCell>
        <mxCell id="haRoXrQ0sM1ameP-LdN--2" value="&lt;b&gt;&lt;i&gt;&amp;nbsp; &amp;nbsp; &amp;nbsp;Functional&amp;nbsp; &amp;nbsp; &amp;nbsp; &amp;nbsp;&lt;/i&gt;&lt;/b&gt;(based on functions and features)" style="rounded=1;whiteSpace=wrap;html=1;" parent="1" vertex="1">
          <mxGeometry x="30" y="160" width="120" height="70" as="geometry" />
        </mxCell>
        <mxCell id="haRoXrQ0sM1ameP-LdN--3" value="&lt;b&gt;&lt;i&gt;Non-functional&lt;/i&gt;&lt;/b&gt;&lt;br&gt;(the testing of how the system works)&lt;b&gt;&lt;br&gt;&lt;/b&gt;" style="rounded=1;whiteSpace=wrap;html=1;" parent="1" vertex="1">
          <mxGeometry x="170" y="160" width="120" height="70" as="geometry" />
        </mxCell>
        <mxCell id="haRoXrQ0sM1ameP-LdN--4" value="&lt;b&gt;&lt;i&gt;Change-related&lt;/i&gt;&lt;/b&gt;" style="rounded=1;whiteSpace=wrap;html=1;" parent="1" vertex="1">
          <mxGeometry x="310" y="165" width="120" height="60" as="geometry" />
        </mxCell>
        <mxCell id="haRoXrQ0sM1ameP-LdN--5" value="Functional testing" style="rounded=1;whiteSpace=wrap;html=1;" parent="1" vertex="1">
          <mxGeometry x="30" y="240" width="120" height="60" as="geometry" />
        </mxCell>
        <mxCell id="haRoXrQ0sM1ameP-LdN--6" value="Security and Access Control Testing" style="rounded=1;whiteSpace=wrap;html=1;" parent="1" vertex="1">
          <mxGeometry x="30" y="310" width="120" height="60" as="geometry" />
        </mxCell>
        <mxCell id="haRoXrQ0sM1ameP-LdN--7" value="Interoperability Testing" style="rounded=1;whiteSpace=wrap;html=1;" parent="1" vertex="1">
          <mxGeometry x="30" y="380" width="120" height="60" as="geometry" />
        </mxCell>
        <mxCell id="haRoXrQ0sM1ameP-LdN--8" value="Performance and Load Testing" style="rounded=1;whiteSpace=wrap;html=1;" parent="1" vertex="1">
          <mxGeometry x="170" y="240" width="120" height="60" as="geometry" />
        </mxCell>
        <mxCell id="haRoXrQ0sM1ameP-LdN--9" value="Stability / Reliability Testing" style="rounded=1;whiteSpace=wrap;html=1;" parent="1" vertex="1">
          <mxGeometry x="170" y="380" width="120" height="60" as="geometry" />
        </mxCell>
        <mxCell id="haRoXrQ0sM1ameP-LdN--10" value="Stress Testing" style="rounded=1;whiteSpace=wrap;html=1;" parent="1" vertex="1">
          <mxGeometry x="170" y="310" width="120" height="60" as="geometry" />
        </mxCell>
        <mxCell id="haRoXrQ0sM1ameP-LdN--11" value="Volume Testing" style="rounded=1;whiteSpace=wrap;html=1;" parent="1" vertex="1">
          <mxGeometry x="170" y="450" width="120" height="60" as="geometry" />
        </mxCell>
        <mxCell id="haRoXrQ0sM1ameP-LdN--12" value="Installation Testing" style="rounded=1;whiteSpace=wrap;html=1;" parent="1" vertex="1">
          <mxGeometry x="170" y="520" width="120" height="60" as="geometry" />
        </mxCell>
        <mxCell id="haRoXrQ0sM1ameP-LdN--13" value="Usability Testing" style="rounded=1;whiteSpace=wrap;html=1;" parent="1" vertex="1">
          <mxGeometry x="170" y="590" width="120" height="60" as="geometry" />
        </mxCell>
        <mxCell id="haRoXrQ0sM1ameP-LdN--14" value="Failover and Recovery Testing" style="rounded=1;whiteSpace=wrap;html=1;" parent="1" vertex="1">
          <mxGeometry x="170" y="660" width="120" height="60" as="geometry" />
        </mxCell>
        <mxCell id="haRoXrQ0sM1ameP-LdN--15" value="Configuration Testing" style="rounded=1;whiteSpace=wrap;html=1;" parent="1" vertex="1">
          <mxGeometry x="170" y="730" width="120" height="60" as="geometry" />
        </mxCell>
        <mxCell id="haRoXrQ0sM1ameP-LdN--16" value="&lt;i&gt;Groups depending on the objectives pursued to testing:&lt;/i&gt;" style="rounded=1;whiteSpace=wrap;html=1;" parent="1" vertex="1">
          <mxGeometry x="170" y="85" width="120" height="60" as="geometry" />
        </mxCell>
        <mxCell id="haRoXrQ0sM1ameP-LdN--107" style="edgeStyle=orthogonalEdgeStyle;rounded=0;orthogonalLoop=1;jettySize=auto;html=1;entryX=1;entryY=0.5;entryDx=0;entryDy=0;fontSize=12;" parent="1" target="haRoXrQ0sM1ameP-LdN--8" edge="1">
          <mxGeometry relative="1" as="geometry">
            <mxPoint x="290" y="270" as="sourcePoint" />
          </mxGeometry>
        </mxCell>
        <mxCell id="haRoXrQ0sM1ameP-LdN--17" value="Smoke Testing" style="rounded=1;whiteSpace=wrap;html=1;" parent="1" vertex="1">
          <mxGeometry x="310" y="240" width="120" height="60" as="geometry" />
        </mxCell>
        <mxCell id="haRoXrQ0sM1ameP-LdN--18" value="Regression Testing" style="rounded=1;whiteSpace=wrap;html=1;" parent="1" vertex="1">
          <mxGeometry x="310" y="310" width="120" height="60" as="geometry" />
        </mxCell>
        <mxCell id="haRoXrQ0sM1ameP-LdN--19" value="Build Verification Test" style="rounded=1;whiteSpace=wrap;html=1;" parent="1" vertex="1">
          <mxGeometry x="310" y="380" width="120" height="60" as="geometry" />
        </mxCell>
        <mxCell id="haRoXrQ0sM1ameP-LdN--20" value="Sanity Testing" style="rounded=1;whiteSpace=wrap;html=1;" parent="1" vertex="1">
          <mxGeometry x="310" y="450" width="120" height="60" as="geometry" />
        </mxCell>
        <mxCell id="haRoXrQ0sM1ameP-LdN--21" value="&lt;font style=&quot;font-size: 12px;&quot;&gt;&lt;i&gt;By Knowing the Internal Structure&lt;br&gt;of the System (Code Availability)&lt;/i&gt;&lt;/font&gt;" style="rounded=1;whiteSpace=wrap;html=1;fontSize=14;" parent="1" vertex="1">
          <mxGeometry x="480" y="85" width="140" height="70" as="geometry" />
        </mxCell>
        <mxCell id="haRoXrQ0sM1ameP-LdN--22" value="&lt;b&gt;&lt;i&gt;Black box testing&lt;/i&gt;&lt;/b&gt;. Testing is conducted without the access to the source code" style="rounded=1;whiteSpace=wrap;html=1;fontSize=12;" parent="1" vertex="1">
          <mxGeometry x="490" y="165" width="120" height="60" as="geometry" />
        </mxCell>
        <mxCell id="haRoXrQ0sM1ameP-LdN--23" value="&lt;b&gt;&lt;i&gt;White box testing&lt;/i&gt;&lt;/b&gt;. Testing is carried out with the access&lt;br&gt;to the source code and with the possibility of code modification" style="rounded=1;whiteSpace=wrap;html=1;fontSize=12;" parent="1" vertex="1">
          <mxGeometry x="490" y="240" width="120" height="110" as="geometry" />
        </mxCell>
        <mxCell id="haRoXrQ0sM1ameP-LdN--24" value="&lt;b&gt;&lt;i&gt;Grey box testing.&lt;br&gt;&lt;/i&gt;&lt;/b&gt;A tester has access to the source code, but when tests are carried&lt;br/&gt;out, access to the code is usually not required&lt;b&gt;&lt;i&gt;&lt;br&gt;&lt;/i&gt;&lt;/b&gt;" style="rounded=1;whiteSpace=wrap;html=1;fontSize=12;" parent="1" vertex="1">
          <mxGeometry x="490" y="360" width="120" height="130" as="geometry" />
        </mxCell>
        <mxCell id="haRoXrQ0sM1ameP-LdN--25" value="&lt;i&gt;By the Test Object&lt;/i&gt;" style="rounded=1;whiteSpace=wrap;html=1;fontSize=12;" parent="1" vertex="1">
          <mxGeometry x="670" y="85" width="120" height="60" as="geometry" />
        </mxCell>
        <mxCell id="haRoXrQ0sM1ameP-LdN--26" value="&lt;b&gt;&lt;i&gt;Usability testing&lt;/i&gt;&lt;/b&gt;" style="rounded=1;whiteSpace=wrap;html=1;fontSize=12;" parent="1" vertex="1">
          <mxGeometry x="670" y="300" width="120" height="60" as="geometry" />
        </mxCell>
        <mxCell id="haRoXrQ0sM1ameP-LdN--27" value="&lt;b&gt;&lt;i&gt;Performance testing&lt;/i&gt;&lt;/b&gt;" style="rounded=1;whiteSpace=wrap;html=1;fontSize=12;" parent="1" vertex="1">
          <mxGeometry x="670" y="230" width="120" height="60" as="geometry" />
        </mxCell>
        <mxCell id="haRoXrQ0sM1ameP-LdN--28" value="&lt;b&gt;&lt;i&gt;Functional testing&lt;/i&gt;&lt;/b&gt;" style="rounded=1;whiteSpace=wrap;html=1;fontSize=12;" parent="1" vertex="1">
          <mxGeometry x="670" y="160" width="120" height="60" as="geometry" />
        </mxCell>
        <mxCell id="haRoXrQ0sM1ameP-LdN--29" value="&lt;b&gt;&lt;i&gt;Security testing&lt;/i&gt;&lt;/b&gt;" style="rounded=1;whiteSpace=wrap;html=1;fontSize=12;" parent="1" vertex="1">
          <mxGeometry x="670" y="370" width="120" height="60" as="geometry" />
        </mxCell>
        <mxCell id="haRoXrQ0sM1ameP-LdN--30" value="&lt;b&gt;&lt;i&gt;GUI testing&lt;/i&gt;&lt;/b&gt;" style="rounded=1;whiteSpace=wrap;html=1;fontSize=12;" parent="1" vertex="1">
          <mxGeometry x="670" y="440" width="120" height="60" as="geometry" />
        </mxCell>
        <mxCell id="haRoXrQ0sM1ameP-LdN--31" value="&lt;b&gt;&lt;i&gt;Manual testing.&lt;/i&gt;&lt;/b&gt;&lt;br&gt;Testing is conducted without automation tools" style="rounded=1;whiteSpace=wrap;html=1;fontSize=12;" parent="1" vertex="1">
          <mxGeometry x="810" y="160" width="120" height="60" as="geometry" />
        </mxCell>
        <mxCell id="haRoXrQ0sM1ameP-LdN--32" value="&lt;i&gt;By the Degree of Automation&lt;/i&gt;" style="rounded=1;whiteSpace=wrap;html=1;fontSize=12;" parent="1" vertex="1">
          <mxGeometry x="810" y="85" width="120" height="60" as="geometry" />
        </mxCell>
        <mxCell id="haRoXrQ0sM1ameP-LdN--33" value="&lt;b&gt;&lt;i&gt;Compatibility testing&lt;/i&gt;&lt;/b&gt;" style="rounded=1;whiteSpace=wrap;html=1;fontSize=12;" parent="1" vertex="1">
          <mxGeometry x="670" y="650" width="120" height="60" as="geometry" />
        </mxCell>
        <mxCell id="haRoXrQ0sM1ameP-LdN--34" value="&lt;b&gt;&lt;i&gt;Internationalization testing&lt;/i&gt;&lt;/b&gt;" style="rounded=1;whiteSpace=wrap;html=1;fontSize=12;" parent="1" vertex="1">
          <mxGeometry x="670" y="580" width="120" height="60" as="geometry" />
        </mxCell>
        <mxCell id="haRoXrQ0sM1ameP-LdN--35" value="&lt;b&gt;&lt;i&gt;Localization testing&lt;/i&gt;&lt;/b&gt;" style="rounded=1;whiteSpace=wrap;html=1;fontSize=12;" parent="1" vertex="1">
          <mxGeometry x="670" y="510" width="120" height="60" as="geometry" />
        </mxCell>
        <mxCell id="haRoXrQ0sM1ameP-LdN--36" value="&lt;b&gt;&lt;i&gt;Semiautomated testing.&lt;br&gt;&lt;/i&gt;&lt;/b&gt;&amp;nbsp;It is assumed that automation&lt;br/&gt;is used for certain purposes&lt;b&gt;&lt;i&gt;&lt;br&gt;&lt;/i&gt;&lt;/b&gt;" style="rounded=1;whiteSpace=wrap;html=1;fontSize=12;" parent="1" vertex="1">
          <mxGeometry x="810" y="300" width="120" height="90" as="geometry" />
        </mxCell>
        <mxCell id="haRoXrQ0sM1ameP-LdN--37" value="&lt;b&gt;&lt;i&gt;Automated testing.&lt;br&gt;&lt;/i&gt;&lt;/b&gt;Testing at all levels is performed using automation tools&lt;b&gt;&lt;i&gt;&lt;br&gt;&lt;/i&gt;&lt;/b&gt;" style="rounded=1;whiteSpace=wrap;html=1;fontSize=12;" parent="1" vertex="1">
          <mxGeometry x="810" y="230" width="120" height="60" as="geometry" />
        </mxCell>
        <mxCell id="haRoXrQ0sM1ameP-LdN--38" value="&lt;b&gt;&lt;i&gt;New feature testing.&lt;/i&gt;&lt;/b&gt; New system functions are tested" style="rounded=1;whiteSpace=wrap;html=1;fontSize=12;" parent="1" vertex="1">
          <mxGeometry x="950" y="380" width="120" height="60" as="geometry" />
        </mxCell>
        <mxCell id="haRoXrQ0sM1ameP-LdN--75" value="" style="edgeStyle=orthogonalEdgeStyle;rounded=0;orthogonalLoop=1;jettySize=auto;html=1;fontSize=12;entryX=0.42;entryY=-0.013;entryDx=0;entryDy=0;entryPerimeter=0;" parent="1" target="haRoXrQ0sM1ameP-LdN--25" edge="1">
          <mxGeometry relative="1" as="geometry">
            <mxPoint x="720" y="70" as="sourcePoint" />
          </mxGeometry>
        </mxCell>
        <mxCell id="haRoXrQ0sM1ameP-LdN--39" value="&lt;b&gt;&lt;i&gt;Smoke testing. &lt;/i&gt;&lt;/b&gt;&lt;br&gt;The minimum set of tests for obvious errors" style="rounded=1;whiteSpace=wrap;html=1;fontSize=12;" parent="1" vertex="1">
          <mxGeometry x="950" y="315" width="120" height="60" as="geometry" />
        </mxCell>
        <mxCell id="haRoXrQ0sM1ameP-LdN--40" value="&lt;b&gt;&lt;i&gt;Beta testing. &lt;/i&gt;&lt;/b&gt;&lt;br&gt;External trial use by involving the selected users." style="rounded=1;whiteSpace=wrap;html=1;fontSize=12;" parent="1" vertex="1">
          <mxGeometry x="950" y="250" width="120" height="60" as="geometry" />
        </mxCell>
        <mxCell id="haRoXrQ0sM1ameP-LdN--41" value="&lt;b&gt;&lt;i&gt;Alpha testing. &lt;/i&gt;&lt;/b&gt;&lt;br&gt;Internal testing (imitation of real work&lt;br&gt;with the system by full-time developers)" style="rounded=1;whiteSpace=wrap;html=1;fontSize=12;" parent="1" vertex="1">
          <mxGeometry x="950" y="160" width="120" height="80" as="geometry" />
        </mxCell>
        <mxCell id="haRoXrQ0sM1ameP-LdN--42" value="&lt;i&gt;By the Testing Time&lt;/i&gt;" style="rounded=1;whiteSpace=wrap;html=1;fontSize=12;" parent="1" vertex="1">
          <mxGeometry x="950" y="85" width="120" height="60" as="geometry" />
        </mxCell>
        <mxCell id="haRoXrQ0sM1ameP-LdN--43" value="&amp;nbsp;&lt;b&gt;&lt;i&gt;Negative testing.&lt;/i&gt;&lt;/b&gt; Checking of how the system responds&lt;br&gt;to the input of negative (not allowed) data" style="rounded=1;whiteSpace=wrap;html=1;fontSize=12;" parent="1" vertex="1">
          <mxGeometry x="1090" y="290" width="120" height="100" as="geometry" />
        </mxCell>
        <mxCell id="haRoXrQ0sM1ameP-LdN--44" value="&lt;b&gt;&lt;i&gt;Positive testing. &lt;/i&gt;&lt;/b&gt;Checking the positive (correct) user scenarios. The allowed (expected) data are given to the input" style="rounded=1;whiteSpace=wrap;html=1;fontSize=12;" parent="1" vertex="1">
          <mxGeometry x="1090" y="165" width="120" height="105" as="geometry" />
        </mxCell>
        <mxCell id="haRoXrQ0sM1ameP-LdN--45" value="&lt;i&gt;By the Positivity of Scenarios&lt;/i&gt;" style="rounded=1;whiteSpace=wrap;html=1;fontSize=12;" parent="1" vertex="1">
          <mxGeometry x="1090" y="85" width="120" height="60" as="geometry" />
        </mxCell>
        <mxCell id="haRoXrQ0sM1ameP-LdN--46" value="&lt;b&gt;&lt;i&gt;Acceptance testing.&lt;/i&gt;&lt;/b&gt; The purpose of acceptance testing&lt;br&gt;is to assess the readiness of the system to be released to&lt;br&gt;the market or handed over to the client" style="rounded=1;whiteSpace=wrap;html=1;fontSize=12;" parent="1" vertex="1">
          <mxGeometry x="950" y="570" width="120" height="140" as="geometry" />
        </mxCell>
        <mxCell id="haRoXrQ0sM1ameP-LdN--47" value="&lt;b&gt;&lt;i&gt;Regression testing.&lt;/i&gt;&lt;/b&gt; Checking the changes made in the&lt;br&gt;system to confirm the fact that the previous functionality works as before" style="rounded=1;whiteSpace=wrap;html=1;fontSize=12;" parent="1" vertex="1">
          <mxGeometry x="950" y="450" width="120" height="110" as="geometry" />
        </mxCell>
        <mxCell id="haRoXrQ0sM1ameP-LdN--50" value="&lt;b&gt;&lt;i&gt;Functional testing &lt;/i&gt;&lt;/b&gt;&lt;br&gt;is a testing type, in which an incorrect&lt;br&gt;operation of the program functionality is revealed" style="rounded=1;whiteSpace=wrap;html=1;fontSize=12;" parent="1" vertex="1">
          <mxGeometry x="1235" y="554.5" width="115" height="105.5" as="geometry" />
        </mxCell>
        <mxCell id="haRoXrQ0sM1ameP-LdN--51" value="&lt;b&gt;&lt;i&gt;Exploratory testing.&lt;/i&gt;&lt;/b&gt; &lt;br&gt;It is assumed that there is a minimal documentation required for testing, or testing without documentation" style="rounded=1;whiteSpace=wrap;html=1;fontSize=12;" parent="1" vertex="1">
          <mxGeometry x="1230" y="430" width="120" height="110" as="geometry" />
        </mxCell>
        <mxCell id="haRoXrQ0sM1ameP-LdN--52" value="&lt;b style=&quot;font-style: italic;&quot;&gt;Ad hoc testing. &lt;/b&gt;Testing is conducted in the complete absence of documentation, without a plan and purpose" style="rounded=1;whiteSpace=wrap;html=1;fontSize=12;" parent="1" vertex="1">
          <mxGeometry x="1230" y="315" width="120" height="105" as="geometry" />
        </mxCell>
        <mxCell id="haRoXrQ0sM1ameP-LdN--53" value="&lt;b&gt;&lt;i&gt;Formal testing. &lt;/i&gt;&lt;/b&gt;&lt;br&gt;The application is tested according to&lt;br&gt;the previously prepared data (test cases, check lists, сheat&lt;br&gt;sheets, specification, etc.)" style="rounded=1;whiteSpace=wrap;html=1;fontSize=12;" parent="1" vertex="1">
          <mxGeometry x="1230" y="165" width="120" height="135" as="geometry" />
        </mxCell>
        <mxCell id="haRoXrQ0sM1ameP-LdN--54" value="&lt;i&gt;By the Degree of Preparedness for Testing&lt;/i&gt;" style="rounded=1;whiteSpace=wrap;html=1;fontSize=12;" parent="1" vertex="1">
          <mxGeometry x="1230" y="85" width="120" height="60" as="geometry" />
        </mxCell>
        <mxCell id="haRoXrQ0sM1ameP-LdN--56" value="" style="endArrow=none;html=1;rounded=0;fontSize=12;" parent="1" edge="1">
          <mxGeometry relative="1" as="geometry">
            <mxPoint x="220" y="70" as="sourcePoint" />
            <mxPoint x="1290" y="70" as="targetPoint" />
          </mxGeometry>
        </mxCell>
        <mxCell id="haRoXrQ0sM1ameP-LdN--74" value="" style="edgeStyle=elbowEdgeStyle;elbow=vertical;endArrow=classic;html=1;curved=0;rounded=0;endSize=8;startSize=8;fontSize=12;exitX=1;exitY=0.5;exitDx=0;exitDy=0;entryX=1;entryY=0.526;entryDx=0;entryDy=0;entryPerimeter=0;" parent="1" source="haRoXrQ0sM1ameP-LdN--54" target="haRoXrQ0sM1ameP-LdN--50" edge="1">
          <mxGeometry width="50" height="50" relative="1" as="geometry">
            <mxPoint x="1370" y="110" as="sourcePoint" />
            <mxPoint x="1360" y="620" as="targetPoint" />
            <Array as="points">
              <mxPoint x="1380" y="340" />
              <mxPoint x="1390" y="410" />
              <mxPoint x="1400" y="110" />
              <mxPoint x="1390" y="110" />
            </Array>
          </mxGeometry>
        </mxCell>
        <mxCell id="haRoXrQ0sM1ameP-LdN--77" value="" style="endArrow=classic;html=1;rounded=0;fontSize=12;entryX=1;entryY=0.5;entryDx=0;entryDy=0;" parent="1" target="haRoXrQ0sM1ameP-LdN--53" edge="1">
          <mxGeometry relative="1" as="geometry">
            <mxPoint x="1380" y="233" as="sourcePoint" />
            <mxPoint x="1430" y="320" as="targetPoint" />
          </mxGeometry>
        </mxCell>
        <mxCell id="haRoXrQ0sM1ameP-LdN--80" value="" style="endArrow=classic;html=1;rounded=0;fontSize=12;" parent="1" edge="1">
          <mxGeometry relative="1" as="geometry">
            <mxPoint x="1140" y="70" as="sourcePoint" />
            <mxPoint x="1140" y="90" as="targetPoint" />
          </mxGeometry>
        </mxCell>
        <mxCell id="haRoXrQ0sM1ameP-LdN--81" value="" style="endArrow=classic;html=1;rounded=0;fontSize=12;entryX=0.5;entryY=0;entryDx=0;entryDy=0;" parent="1" target="haRoXrQ0sM1ameP-LdN--54" edge="1">
          <mxGeometry relative="1" as="geometry">
            <mxPoint x="1290" y="70" as="sourcePoint" />
            <mxPoint x="1440" y="511.5999755859375" as="targetPoint" />
          </mxGeometry>
        </mxCell>
        <mxCell id="haRoXrQ0sM1ameP-LdN--82" value="" style="endArrow=classic;html=1;rounded=0;fontSize=12;entryX=1.027;entryY=0.42;entryDx=0;entryDy=0;entryPerimeter=0;" parent="1" target="haRoXrQ0sM1ameP-LdN--51" edge="1">
          <mxGeometry relative="1" as="geometry">
            <mxPoint x="1380" y="476" as="sourcePoint" />
            <mxPoint x="1380" y="262.5" as="targetPoint" />
          </mxGeometry>
        </mxCell>
        <mxCell id="haRoXrQ0sM1ameP-LdN--84" value="" style="endArrow=classic;html=1;rounded=0;fontSize=12;entryX=1;entryY=0.5;entryDx=0;entryDy=0;" parent="1" edge="1">
          <mxGeometry relative="1" as="geometry">
            <mxPoint x="1380" y="359.5" as="sourcePoint" />
            <mxPoint x="1350" y="359" as="targetPoint" />
            <Array as="points">
              <mxPoint x="1370" y="359.5" />
            </Array>
          </mxGeometry>
        </mxCell>
        <mxCell id="haRoXrQ0sM1ameP-LdN--85" value="" style="endArrow=classic;html=1;rounded=0;fontSize=12;" parent="1" edge="1">
          <mxGeometry width="50" height="50" relative="1" as="geometry">
            <mxPoint x="1010" y="70" as="sourcePoint" />
            <mxPoint x="1010" y="90" as="targetPoint" />
          </mxGeometry>
        </mxCell>
        <mxCell id="haRoXrQ0sM1ameP-LdN--86" value="" style="endArrow=classic;html=1;rounded=0;fontSize=12;" parent="1" edge="1">
          <mxGeometry width="50" height="50" relative="1" as="geometry">
            <mxPoint x="860" y="70" as="sourcePoint" />
            <mxPoint x="860" y="90" as="targetPoint" />
          </mxGeometry>
        </mxCell>
        <mxCell id="haRoXrQ0sM1ameP-LdN--87" value="" style="endArrow=classic;html=1;rounded=0;fontSize=12;entryX=0.5;entryY=0;entryDx=0;entryDy=0;" parent="1" target="haRoXrQ0sM1ameP-LdN--21" edge="1">
          <mxGeometry width="50" height="50" relative="1" as="geometry">
            <mxPoint x="550" y="70" as="sourcePoint" />
            <mxPoint x="550" y="80" as="targetPoint" />
          </mxGeometry>
        </mxCell>
        <mxCell id="haRoXrQ0sM1ameP-LdN--88" value="" style="endArrow=classic;html=1;rounded=0;fontSize=12;entryX=0.417;entryY=0.083;entryDx=0;entryDy=0;entryPerimeter=0;" parent="1" target="haRoXrQ0sM1ameP-LdN--16" edge="1">
          <mxGeometry width="50" height="50" relative="1" as="geometry">
            <mxPoint x="220" y="70" as="sourcePoint" />
            <mxPoint x="560" y="210" as="targetPoint" />
          </mxGeometry>
        </mxCell>
        <mxCell id="haRoXrQ0sM1ameP-LdN--89" value="" style="endArrow=none;html=1;rounded=0;fontSize=12;" parent="1" edge="1">
          <mxGeometry width="50" height="50" relative="1" as="geometry">
            <mxPoint x="80" y="150" as="sourcePoint" />
            <mxPoint x="370" y="150" as="targetPoint" />
          </mxGeometry>
        </mxCell>
        <mxCell id="haRoXrQ0sM1ameP-LdN--90" value="" style="endArrow=classic;html=1;rounded=0;fontSize=12;entryX=0.5;entryY=0;entryDx=0;entryDy=0;" parent="1" target="haRoXrQ0sM1ameP-LdN--4" edge="1">
          <mxGeometry width="50" height="50" relative="1" as="geometry">
            <mxPoint x="370" y="150" as="sourcePoint" />
            <mxPoint x="560" y="210" as="targetPoint" />
          </mxGeometry>
        </mxCell>
        <mxCell id="haRoXrQ0sM1ameP-LdN--91" value="" style="endArrow=classic;html=1;rounded=0;fontSize=12;entryX=0.5;entryY=0;entryDx=0;entryDy=0;" parent="1" target="haRoXrQ0sM1ameP-LdN--3" edge="1">
          <mxGeometry width="50" height="50" relative="1" as="geometry">
            <mxPoint x="230" y="150" as="sourcePoint" />
            <mxPoint x="560" y="210" as="targetPoint" />
          </mxGeometry>
        </mxCell>
        <mxCell id="haRoXrQ0sM1ameP-LdN--92" value="" style="endArrow=classic;html=1;rounded=0;fontSize=12;entryX=0.417;entryY=0;entryDx=0;entryDy=0;entryPerimeter=0;" parent="1" target="haRoXrQ0sM1ameP-LdN--2" edge="1">
          <mxGeometry width="50" height="50" relative="1" as="geometry">
            <mxPoint x="80" y="150" as="sourcePoint" />
            <mxPoint x="560" y="210" as="targetPoint" />
          </mxGeometry>
        </mxCell>
        <mxCell id="haRoXrQ0sM1ameP-LdN--95" value="" style="endArrow=none;html=1;rounded=0;fontSize=12;" parent="1" edge="1">
          <mxGeometry width="50" height="50" relative="1" as="geometry">
            <mxPoint x="450" y="480" as="sourcePoint" />
            <mxPoint x="450" y="200" as="targetPoint" />
          </mxGeometry>
        </mxCell>
        <mxCell id="haRoXrQ0sM1ameP-LdN--99" value="" style="endArrow=classic;html=1;rounded=0;fontSize=12;entryX=1;entryY=0.5;entryDx=0;entryDy=0;" parent="1" target="haRoXrQ0sM1ameP-LdN--17" edge="1">
          <mxGeometry width="50" height="50" relative="1" as="geometry">
            <mxPoint x="450" y="270" as="sourcePoint" />
            <mxPoint x="560" y="210" as="targetPoint" />
          </mxGeometry>
        </mxCell>
        <mxCell id="haRoXrQ0sM1ameP-LdN--100" value="" style="endArrow=classic;html=1;rounded=0;fontSize=12;entryX=1;entryY=0.5;entryDx=0;entryDy=0;" parent="1" target="haRoXrQ0sM1ameP-LdN--18" edge="1">
          <mxGeometry width="50" height="50" relative="1" as="geometry">
            <mxPoint x="450" y="340" as="sourcePoint" />
            <mxPoint x="560" y="210" as="targetPoint" />
          </mxGeometry>
        </mxCell>
        <mxCell id="haRoXrQ0sM1ameP-LdN--101" value="" style="endArrow=classic;html=1;rounded=0;fontSize=12;entryX=1;entryY=0.5;entryDx=0;entryDy=0;" parent="1" target="haRoXrQ0sM1ameP-LdN--19" edge="1">
          <mxGeometry width="50" height="50" relative="1" as="geometry">
            <mxPoint x="450" y="410" as="sourcePoint" />
            <mxPoint x="560" y="210" as="targetPoint" />
          </mxGeometry>
        </mxCell>
        <mxCell id="haRoXrQ0sM1ameP-LdN--102" value="" style="endArrow=classic;html=1;rounded=0;fontSize=12;entryX=1;entryY=0.5;entryDx=0;entryDy=0;" parent="1" target="haRoXrQ0sM1ameP-LdN--20" edge="1">
          <mxGeometry width="50" height="50" relative="1" as="geometry">
            <mxPoint x="450" y="480" as="sourcePoint" />
            <mxPoint x="560" y="210" as="targetPoint" />
          </mxGeometry>
        </mxCell>
        <mxCell id="haRoXrQ0sM1ameP-LdN--103" value="" style="endArrow=none;html=1;rounded=0;fontSize=12;" parent="1" edge="1">
          <mxGeometry width="50" height="50" relative="1" as="geometry">
            <mxPoint x="430" y="200" as="sourcePoint" />
            <mxPoint x="450" y="200" as="targetPoint" />
          </mxGeometry>
        </mxCell>
        <mxCell id="haRoXrQ0sM1ameP-LdN--104" value="" style="endArrow=none;html=1;rounded=0;fontSize=12;" parent="1" edge="1">
          <mxGeometry width="50" height="50" relative="1" as="geometry">
            <mxPoint x="300" y="480" as="sourcePoint" />
            <mxPoint x="300" y="200" as="targetPoint" />
          </mxGeometry>
        </mxCell>
        <mxCell id="haRoXrQ0sM1ameP-LdN--105" value="" style="endArrow=none;html=1;rounded=0;fontSize=12;entryX=1.007;entryY=0.573;entryDx=0;entryDy=0;entryPerimeter=0;" parent="1" target="haRoXrQ0sM1ameP-LdN--3" edge="1">
          <mxGeometry width="50" height="50" relative="1" as="geometry">
            <mxPoint x="300" y="200" as="sourcePoint" />
            <mxPoint x="380" y="210" as="targetPoint" />
          </mxGeometry>
        </mxCell>
        <mxCell id="haRoXrQ0sM1ameP-LdN--111" value="" style="endArrow=classic;html=1;rounded=0;fontSize=12;entryX=1;entryY=0.5;entryDx=0;entryDy=0;" parent="1" target="haRoXrQ0sM1ameP-LdN--8" edge="1">
          <mxGeometry width="50" height="50" relative="1" as="geometry">
            <mxPoint x="300" y="270" as="sourcePoint" />
            <mxPoint x="380" y="210" as="targetPoint" />
          </mxGeometry>
        </mxCell>
        <mxCell id="haRoXrQ0sM1ameP-LdN--112" value="" style="endArrow=classic;html=1;rounded=0;fontSize=12;entryX=1;entryY=0.5;entryDx=0;entryDy=0;" parent="1" target="haRoXrQ0sM1ameP-LdN--10" edge="1">
          <mxGeometry width="50" height="50" relative="1" as="geometry">
            <mxPoint x="300" y="340" as="sourcePoint" />
            <mxPoint x="380" y="210" as="targetPoint" />
          </mxGeometry>
        </mxCell>
        <mxCell id="haRoXrQ0sM1ameP-LdN--113" value="" style="endArrow=classic;html=1;rounded=0;fontSize=12;entryX=1;entryY=0.5;entryDx=0;entryDy=0;" parent="1" target="haRoXrQ0sM1ameP-LdN--11" edge="1">
          <mxGeometry width="50" height="50" relative="1" as="geometry">
            <mxPoint x="300" y="480" as="sourcePoint" />
            <mxPoint x="380" y="400" as="targetPoint" />
          </mxGeometry>
        </mxCell>
        <mxCell id="haRoXrQ0sM1ameP-LdN--115" value="" style="endArrow=none;html=1;rounded=0;fontSize=12;" parent="1" edge="1">
          <mxGeometry width="50" height="50" relative="1" as="geometry">
            <mxPoint x="300" y="620" as="sourcePoint" />
            <mxPoint x="300" y="480" as="targetPoint" />
          </mxGeometry>
        </mxCell>
        <mxCell id="haRoXrQ0sM1ameP-LdN--116" value="" style="endArrow=classic;html=1;rounded=0;fontSize=12;entryX=1;entryY=0.5;entryDx=0;entryDy=0;" parent="1" target="haRoXrQ0sM1ameP-LdN--12" edge="1">
          <mxGeometry width="50" height="50" relative="1" as="geometry">
            <mxPoint x="300" y="550" as="sourcePoint" />
            <mxPoint x="380" y="500" as="targetPoint" />
          </mxGeometry>
        </mxCell>
        <mxCell id="haRoXrQ0sM1ameP-LdN--117" value="" style="endArrow=classic;html=1;rounded=0;fontSize=12;entryX=1;entryY=0.5;entryDx=0;entryDy=0;" parent="1" target="haRoXrQ0sM1ameP-LdN--13" edge="1">
          <mxGeometry width="50" height="50" relative="1" as="geometry">
            <mxPoint x="300" y="620" as="sourcePoint" />
            <mxPoint x="380" y="500" as="targetPoint" />
          </mxGeometry>
        </mxCell>
        <mxCell id="haRoXrQ0sM1ameP-LdN--118" value="" style="endArrow=classic;html=1;rounded=0;fontSize=12;entryX=1;entryY=0.5;entryDx=0;entryDy=0;" parent="1" target="haRoXrQ0sM1ameP-LdN--9" edge="1">
          <mxGeometry width="50" height="50" relative="1" as="geometry">
            <mxPoint x="300" y="410" as="sourcePoint" />
            <mxPoint x="380" y="400" as="targetPoint" />
          </mxGeometry>
        </mxCell>
        <mxCell id="haRoXrQ0sM1ameP-LdN--119" value="" style="endArrow=none;html=1;rounded=0;fontSize=12;" parent="1" edge="1">
          <mxGeometry width="50" height="50" relative="1" as="geometry">
            <mxPoint x="10" y="401.1428687686012" as="sourcePoint" />
            <mxPoint x="10" y="200" as="targetPoint" />
          </mxGeometry>
        </mxCell>
        <mxCell id="haRoXrQ0sM1ameP-LdN--120" value="" style="endArrow=none;html=1;rounded=0;fontSize=12;" parent="1" edge="1">
          <mxGeometry width="50" height="50" relative="1" as="geometry">
            <mxPoint x="30" y="200" as="sourcePoint" />
            <mxPoint x="10" y="200" as="targetPoint" />
          </mxGeometry>
        </mxCell>
        <mxCell id="haRoXrQ0sM1ameP-LdN--121" value="" style="endArrow=classic;html=1;rounded=0;fontSize=12;entryX=0;entryY=0.5;entryDx=0;entryDy=0;" parent="1" target="haRoXrQ0sM1ameP-LdN--5" edge="1">
          <mxGeometry width="50" height="50" relative="1" as="geometry">
            <mxPoint x="10" y="270" as="sourcePoint" />
            <mxPoint x="240" y="260" as="targetPoint" />
          </mxGeometry>
        </mxCell>
        <mxCell id="haRoXrQ0sM1ameP-LdN--122" value="" style="endArrow=classic;html=1;rounded=0;fontSize=12;entryX=0;entryY=0.5;entryDx=0;entryDy=0;" parent="1" target="haRoXrQ0sM1ameP-LdN--6" edge="1">
          <mxGeometry width="50" height="50" relative="1" as="geometry">
            <mxPoint x="10" y="340" as="sourcePoint" />
            <mxPoint x="240" y="260" as="targetPoint" />
          </mxGeometry>
        </mxCell>
        <mxCell id="haRoXrQ0sM1ameP-LdN--123" value="" style="endArrow=classic;html=1;rounded=0;fontSize=12;" parent="1" edge="1">
          <mxGeometry width="50" height="50" relative="1" as="geometry">
            <mxPoint x="10" y="400" as="sourcePoint" />
            <mxPoint x="30" y="400" as="targetPoint" />
          </mxGeometry>
        </mxCell>
        <mxCell id="haRoXrQ0sM1ameP-LdN--124" value="" style="endArrow=none;html=1;rounded=0;fontSize=12;" parent="1" edge="1">
          <mxGeometry width="50" height="50" relative="1" as="geometry">
            <mxPoint x="300" y="760" as="sourcePoint" />
            <mxPoint x="300" y="620" as="targetPoint" />
          </mxGeometry>
        </mxCell>
        <mxCell id="haRoXrQ0sM1ameP-LdN--125" value="" style="endArrow=classic;html=1;rounded=0;fontSize=12;entryX=1;entryY=0.5;entryDx=0;entryDy=0;" parent="1" target="haRoXrQ0sM1ameP-LdN--14" edge="1">
          <mxGeometry width="50" height="50" relative="1" as="geometry">
            <mxPoint x="300" y="690" as="sourcePoint" />
            <mxPoint x="230" y="610" as="targetPoint" />
          </mxGeometry>
        </mxCell>
        <mxCell id="haRoXrQ0sM1ameP-LdN--126" value="" style="endArrow=classic;html=1;rounded=0;fontSize=12;entryX=1;entryY=0.5;entryDx=0;entryDy=0;" parent="1" target="haRoXrQ0sM1ameP-LdN--15" edge="1">
          <mxGeometry width="50" height="50" relative="1" as="geometry">
            <mxPoint x="300" y="760" as="sourcePoint" />
            <mxPoint x="230" y="610" as="targetPoint" />
          </mxGeometry>
        </mxCell>
        <mxCell id="haRoXrQ0sM1ameP-LdN--127" value="" style="endArrow=none;html=1;rounded=0;fontSize=12;" parent="1" edge="1">
          <mxGeometry width="50" height="50" relative="1" as="geometry">
            <mxPoint x="470" y="400" as="sourcePoint" />
            <mxPoint x="470" y="120" as="targetPoint" />
          </mxGeometry>
        </mxCell>
        <mxCell id="haRoXrQ0sM1ameP-LdN--128" value="" style="endArrow=none;html=1;rounded=0;fontSize=12;exitX=0;exitY=0.5;exitDx=0;exitDy=0;" parent="1" source="haRoXrQ0sM1ameP-LdN--21" edge="1">
          <mxGeometry width="50" height="50" relative="1" as="geometry">
            <mxPoint x="650" y="250" as="sourcePoint" />
            <mxPoint x="470" y="120" as="targetPoint" />
          </mxGeometry>
        </mxCell>
        <mxCell id="haRoXrQ0sM1ameP-LdN--129" value="" style="endArrow=classic;html=1;rounded=0;fontSize=12;" parent="1" edge="1">
          <mxGeometry width="50" height="50" relative="1" as="geometry">
            <mxPoint x="470" y="200" as="sourcePoint" />
            <mxPoint x="490" y="200" as="targetPoint" />
          </mxGeometry>
        </mxCell>
        <mxCell id="haRoXrQ0sM1ameP-LdN--130" value="" style="endArrow=classic;html=1;rounded=0;fontSize=12;" parent="1" edge="1">
          <mxGeometry width="50" height="50" relative="1" as="geometry">
            <mxPoint x="470" y="300" as="sourcePoint" />
            <mxPoint x="490" y="300" as="targetPoint" />
          </mxGeometry>
        </mxCell>
        <mxCell id="haRoXrQ0sM1ameP-LdN--131" value="" style="endArrow=classic;html=1;rounded=0;fontSize=12;" parent="1" edge="1">
          <mxGeometry width="50" height="50" relative="1" as="geometry">
            <mxPoint x="470" y="400" as="sourcePoint" />
            <mxPoint x="490" y="400" as="targetPoint" />
          </mxGeometry>
        </mxCell>
        <mxCell id="haRoXrQ0sM1ameP-LdN--133" value="" style="endArrow=none;html=1;rounded=0;fontSize=12;" parent="1" edge="1">
          <mxGeometry width="50" height="50" relative="1" as="geometry">
            <mxPoint x="650" y="680" as="sourcePoint" />
            <mxPoint x="650" y="120" as="targetPoint" />
          </mxGeometry>
        </mxCell>
        <mxCell id="haRoXrQ0sM1ameP-LdN--134" value="" style="endArrow=classic;html=1;rounded=0;fontSize=12;" parent="1" target="haRoXrQ0sM1ameP-LdN--33" edge="1">
          <mxGeometry width="50" height="50" relative="1" as="geometry">
            <mxPoint x="650" y="680" as="sourcePoint" />
            <mxPoint x="700" y="610" as="targetPoint" />
          </mxGeometry>
        </mxCell>
        <mxCell id="haRoXrQ0sM1ameP-LdN--135" value="" style="endArrow=classic;html=1;rounded=0;fontSize=12;" parent="1" edge="1">
          <mxGeometry width="50" height="50" relative="1" as="geometry">
            <mxPoint x="650" y="620" as="sourcePoint" />
            <mxPoint x="670" y="620" as="targetPoint" />
          </mxGeometry>
        </mxCell>
        <mxCell id="haRoXrQ0sM1ameP-LdN--136" value="" style="endArrow=classic;html=1;rounded=0;fontSize=12;" parent="1" target="haRoXrQ0sM1ameP-LdN--35" edge="1">
          <mxGeometry width="50" height="50" relative="1" as="geometry">
            <mxPoint x="650" y="540" as="sourcePoint" />
            <mxPoint x="700" y="610" as="targetPoint" />
          </mxGeometry>
        </mxCell>
        <mxCell id="haRoXrQ0sM1ameP-LdN--137" value="" style="endArrow=classic;html=1;rounded=0;fontSize=12;entryX=0;entryY=0.5;entryDx=0;entryDy=0;" parent="1" target="haRoXrQ0sM1ameP-LdN--30" edge="1">
          <mxGeometry width="50" height="50" relative="1" as="geometry">
            <mxPoint x="650" y="470" as="sourcePoint" />
            <mxPoint x="700" y="610" as="targetPoint" />
          </mxGeometry>
        </mxCell>
        <mxCell id="haRoXrQ0sM1ameP-LdN--138" value="" style="endArrow=classic;html=1;rounded=0;fontSize=12;" parent="1" edge="1">
          <mxGeometry width="50" height="50" relative="1" as="geometry">
            <mxPoint x="650" y="400" as="sourcePoint" />
            <mxPoint x="670" y="400" as="targetPoint" />
          </mxGeometry>
        </mxCell>
        <mxCell id="haRoXrQ0sM1ameP-LdN--139" value="" style="endArrow=classic;html=1;rounded=0;fontSize=12;" parent="1" target="haRoXrQ0sM1ameP-LdN--26" edge="1">
          <mxGeometry width="50" height="50" relative="1" as="geometry">
            <mxPoint x="650" y="330" as="sourcePoint" />
            <mxPoint x="700" y="270" as="targetPoint" />
          </mxGeometry>
        </mxCell>
        <mxCell id="haRoXrQ0sM1ameP-LdN--140" value="" style="endArrow=classic;html=1;rounded=0;fontSize=12;entryX=0;entryY=0.5;entryDx=0;entryDy=0;" parent="1" target="haRoXrQ0sM1ameP-LdN--27" edge="1">
          <mxGeometry width="50" height="50" relative="1" as="geometry">
            <mxPoint x="650" y="260" as="sourcePoint" />
            <mxPoint x="700" y="200" as="targetPoint" />
          </mxGeometry>
        </mxCell>
        <mxCell id="haRoXrQ0sM1ameP-LdN--141" value="" style="endArrow=classic;html=1;rounded=0;fontSize=12;" parent="1" edge="1">
          <mxGeometry width="50" height="50" relative="1" as="geometry">
            <mxPoint x="650" y="200" as="sourcePoint" />
            <mxPoint x="670" y="200" as="targetPoint" />
          </mxGeometry>
        </mxCell>
        <mxCell id="haRoXrQ0sM1ameP-LdN--142" value="" style="endArrow=none;html=1;rounded=0;fontSize=12;" parent="1" edge="1">
          <mxGeometry width="50" height="50" relative="1" as="geometry">
            <mxPoint x="650" y="120" as="sourcePoint" />
            <mxPoint x="670" y="120" as="targetPoint" />
          </mxGeometry>
        </mxCell>
        <mxCell id="haRoXrQ0sM1ameP-LdN--143" value="" style="endArrow=none;html=1;rounded=0;fontSize=12;" parent="1" edge="1">
          <mxGeometry width="50" height="50" relative="1" as="geometry">
            <mxPoint x="1220" y="350" as="sourcePoint" />
            <mxPoint x="1220" y="120" as="targetPoint" />
          </mxGeometry>
        </mxCell>
        <mxCell id="haRoXrQ0sM1ameP-LdN--144" value="" style="endArrow=classic;html=1;rounded=0;fontSize=12;" parent="1" edge="1">
          <mxGeometry width="50" height="50" relative="1" as="geometry">
            <mxPoint x="1220" y="210" as="sourcePoint" />
            <mxPoint x="1210" y="210" as="targetPoint" />
          </mxGeometry>
        </mxCell>
        <mxCell id="haRoXrQ0sM1ameP-LdN--145" value="" style="endArrow=classic;html=1;rounded=0;fontSize=12;" parent="1" edge="1">
          <mxGeometry width="50" height="50" relative="1" as="geometry">
            <mxPoint x="1220" y="350" as="sourcePoint" />
            <mxPoint x="1210" y="350" as="targetPoint" />
          </mxGeometry>
        </mxCell>
        <mxCell id="haRoXrQ0sM1ameP-LdN--146" value="" style="endArrow=none;html=1;rounded=0;fontSize=12;" parent="1" edge="1">
          <mxGeometry width="50" height="50" relative="1" as="geometry">
            <mxPoint x="1210" y="120" as="sourcePoint" />
            <mxPoint x="1220" y="120" as="targetPoint" />
          </mxGeometry>
        </mxCell>
        <mxCell id="haRoXrQ0sM1ameP-LdN--147" value="" style="endArrow=none;html=1;rounded=0;fontSize=12;" parent="1" edge="1">
          <mxGeometry width="50" height="50" relative="1" as="geometry">
            <mxPoint x="800" y="350" as="sourcePoint" />
            <mxPoint x="800" y="120" as="targetPoint" />
          </mxGeometry>
        </mxCell>
        <mxCell id="haRoXrQ0sM1ameP-LdN--149" value="" style="endArrow=none;html=1;rounded=0;fontSize=12;" parent="1" edge="1">
          <mxGeometry width="50" height="50" relative="1" as="geometry">
            <mxPoint x="810" y="120" as="sourcePoint" />
            <mxPoint x="800" y="120" as="targetPoint" />
          </mxGeometry>
        </mxCell>
        <mxCell id="haRoXrQ0sM1ameP-LdN--150" value="" style="endArrow=classic;html=1;rounded=0;fontSize=12;entryX=0;entryY=0.667;entryDx=0;entryDy=0;entryPerimeter=0;" parent="1" target="haRoXrQ0sM1ameP-LdN--31" edge="1">
          <mxGeometry width="50" height="50" relative="1" as="geometry">
            <mxPoint x="800" y="200" as="sourcePoint" />
            <mxPoint x="1090" y="200" as="targetPoint" />
          </mxGeometry>
        </mxCell>
        <mxCell id="haRoXrQ0sM1ameP-LdN--151" value="" style="endArrow=classic;html=1;rounded=0;fontSize=12;" parent="1" edge="1">
          <mxGeometry width="50" height="50" relative="1" as="geometry">
            <mxPoint x="800" y="260" as="sourcePoint" />
            <mxPoint x="810" y="260" as="targetPoint" />
          </mxGeometry>
        </mxCell>
        <mxCell id="haRoXrQ0sM1ameP-LdN--153" value="" style="endArrow=classic;html=1;rounded=0;fontSize=12;entryX=0.012;entryY=0.562;entryDx=0;entryDy=0;entryPerimeter=0;" parent="1" target="haRoXrQ0sM1ameP-LdN--36" edge="1">
          <mxGeometry width="50" height="50" relative="1" as="geometry">
            <mxPoint x="800" y="350" as="sourcePoint" />
            <mxPoint x="1090" y="200" as="targetPoint" />
          </mxGeometry>
        </mxCell>
        <mxCell id="haRoXrQ0sM1ameP-LdN--154" value="" style="endArrow=none;html=1;rounded=0;fontSize=12;" parent="1" edge="1">
          <mxGeometry width="50" height="50" relative="1" as="geometry">
            <mxPoint x="940" y="630" as="sourcePoint" />
            <mxPoint x="940" y="120" as="targetPoint" />
          </mxGeometry>
        </mxCell>
        <mxCell id="haRoXrQ0sM1ameP-LdN--155" value="" style="endArrow=none;html=1;rounded=0;fontSize=12;" parent="1" edge="1">
          <mxGeometry width="50" height="50" relative="1" as="geometry">
            <mxPoint x="950" y="120" as="sourcePoint" />
            <mxPoint x="940" y="120" as="targetPoint" />
          </mxGeometry>
        </mxCell>
        <mxCell id="haRoXrQ0sM1ameP-LdN--156" value="" style="endArrow=classic;html=1;rounded=0;fontSize=12;" parent="1" edge="1">
          <mxGeometry width="50" height="50" relative="1" as="geometry">
            <mxPoint x="940" y="200" as="sourcePoint" />
            <mxPoint x="950" y="200" as="targetPoint" />
          </mxGeometry>
        </mxCell>
        <mxCell id="haRoXrQ0sM1ameP-LdN--157" value="" style="endArrow=classic;html=1;rounded=0;fontSize=12;" parent="1" edge="1">
          <mxGeometry width="50" height="50" relative="1" as="geometry">
            <mxPoint x="940" y="280" as="sourcePoint" />
            <mxPoint x="950" y="280" as="targetPoint" />
          </mxGeometry>
        </mxCell>
        <mxCell id="haRoXrQ0sM1ameP-LdN--158" value="" style="endArrow=classic;html=1;rounded=0;fontSize=12;" parent="1" edge="1">
          <mxGeometry width="50" height="50" relative="1" as="geometry">
            <mxPoint x="940" y="350" as="sourcePoint" />
            <mxPoint x="950" y="350" as="targetPoint" />
          </mxGeometry>
        </mxCell>
        <mxCell id="haRoXrQ0sM1ameP-LdN--159" value="" style="endArrow=classic;html=1;rounded=0;fontSize=12;" parent="1" edge="1">
          <mxGeometry width="50" height="50" relative="1" as="geometry">
            <mxPoint x="940" y="410" as="sourcePoint" />
            <mxPoint x="950" y="410" as="targetPoint" />
          </mxGeometry>
        </mxCell>
        <mxCell id="haRoXrQ0sM1ameP-LdN--160" value="" style="endArrow=classic;html=1;rounded=0;fontSize=12;" parent="1" edge="1">
          <mxGeometry width="50" height="50" relative="1" as="geometry">
            <mxPoint x="940" y="520" as="sourcePoint" />
            <mxPoint x="950" y="520" as="targetPoint" />
          </mxGeometry>
        </mxCell>
        <mxCell id="haRoXrQ0sM1ameP-LdN--161" value="" style="endArrow=classic;html=1;rounded=0;fontSize=12;" parent="1" edge="1">
          <mxGeometry width="50" height="50" relative="1" as="geometry">
            <mxPoint x="940" y="630" as="sourcePoint" />
            <mxPoint x="950" y="630" as="targetPoint" />
          </mxGeometry>
        </mxCell>
      </root>
    </mxGraphModel>
  </diagram>
</mxfile>
